<?xml version="1.0" standalone="no"?>
<!DOCTYPE svg PUBLIC "-//W3C//DTD SVG 20010904//EN"
 "http://www.w3.org/TR/2001/REC-SVG-20010904/DTD/svg10.dtd">
<svg version="1.0" xmlns="http://www.w3.org/2000/svg"
 width="397.000000pt" height="86.000000pt" viewBox="0 0 397.000000 86.000000"
 preserveAspectRatio="xMidYMid meet">

<g transform="translate(0.000000,86.000000) scale(0.100000,-0.100000)"
fill="#000000" stroke="none">
<path d="M2510 822 c-50 -24 -80 -88 -80 -169 0 -61 -1 -63 -25 -63 -21 0 -25
-5 -25 -31 l0 -30 -32 24 c-42 31 -90 47 -143 47 -53 0 -101 -16 -142 -47
l-33 -24 0 30 c0 29 -3 31 -35 31 l-35 0 0 65 0 66 -62 -3 -62 -3 3 -62 2 -63
-80 0 -81 0 0 -113 c0 -98 -3 -116 -18 -130 -25 -23 -68 -21 -92 3 -18 18 -20
33 -20 130 l0 110 -129 0 c-81 0 -131 -4 -133 -10 -2 -7 -16 -5 -37 6 -23 11
-49 15 -86 12 -66 -6 -114 -39 -143 -100 -15 -30 -21 -37 -22 -22 0 27 -28 52
-64 56 -26 3 -31 10 -57 83 -52 143 -58 153 -108 177 -42 21 -63 23 -233 26
-205 4 -279 -8 -322 -51 -12 -12 -37 -65 -56 -117 -40 -114 -44 -120 -82 -120
-24 0 -32 -6 -44 -36 -18 -44 -12 -64 18 -64 l23 0 -3 -180 c-3 -131 0 -185 8
-195 9 -11 35 -15 95 -15 91 0 95 3 95 65 l0 34 244 1 245 0 3 -47 3 -48 83
-3 c56 -2 89 1 99 9 12 11 14 44 11 196 -2 135 0 183 9 183 6 0 17 2 25 5 9 4
13 -6 14 -34 5 -126 150 -213 252 -151 26 16 32 17 32 5 0 -12 14 -15 65 -15
l65 0 2 173 2 172 5 -135 c8 -187 25 -208 172 -218 62 -3 84 -1 122 16 61 27
79 64 85 170 7 119 26 103 32 -27 5 -101 6 -103 38 -132 35 -31 86 -38 137
-19 22 8 26 15 23 35 l-5 24 29 -24 c39 -33 101 -48 172 -42 129 12 205 118
173 240 -6 21 -4 27 8 27 13 0 15 -20 15 -130 l0 -130 60 0 60 0 0 130 c0 118
2 130 18 130 16 0 17 -8 14 -65 -5 -77 8 -114 54 -155 56 -49 157 -64 237 -36
45 16 73 39 98 81 l19 30 0 -57 0 -58 60 0 60 0 0 295 0 295 -60 0 -60 0 0
-177 0 -178 -19 31 c-54 89 -195 120 -299 66 -41 -21 -42 -21 -42 -2 0 17 -7
20 -40 20 l-40 0 0 51 c0 68 14 93 49 86 24 -5 30 -1 44 29 23 48 22 53 -18
70 -45 18 -72 18 -115 -4z m-1778 -94 c16 -11 37 -44 56 -90 48 -118 48 -116
10 -123 -41 -8 -584 -2 -592 6 -8 8 19 91 52 159 34 68 36 69 273 67 145 -2
179 -5 201 -19z m542 -257 c24 -25 24 -87 -1 -112 -25 -26 -87 -28 -113 -4
-14 13 -20 31 -20 62 0 38 4 46 33 63 36 23 71 20 101 -9z m730 7 c-4 -13 -7
-49 -6 -81 1 -50 -1 -58 -16 -55 -14 3 -18 17 -20 81 l-3 77 26 0 c23 0 25 -3
19 -22z m261 -8 c47 -47 9 -134 -59 -134 -50 0 -76 27 -76 79 0 77 79 109 135
55z m580 0 c26 -27 25 -84 -3 -112 -50 -50 -134 -15 -134 56 0 77 81 110 137
56z m-2588 -112 c66 -29 79 -49 42 -68 -16 -9 -26 -8 -44 4 -14 9 -46 16 -74
16 -55 0 -67 13 -51 56 9 23 14 25 45 20 19 -4 56 -16 82 -28z m643 7 c16 -41
4 -53 -58 -58 -31 -3 -71 -8 -88 -12 -40 -9 -54 10 -28 35 23 22 110 59 142
59 15 1 26 -7 32 -24z"/>
<path d="M3146 789 c-36 -28 -36 -80 0 -108 15 -12 35 -21 46 -21 27 0 68 45
68 75 0 30 -41 75 -68 75 -11 0 -31 -9 -46 -21z"/>
<path d="M3378 590 c-40 -12 -87 -48 -109 -84 l-19 -31 0 58 0 57 -62 0 -63 0
0 -175 0 -175 63 0 62 0 0 58 0 57 19 -31 c71 -117 275 -127 358 -17 40 53 44
137 9 197 -45 77 -160 116 -258 86z m135 -122 c22 -27 22 -80 -2 -109 -27 -34
-86 -32 -117 5 -28 32 -30 62 -8 94 32 46 93 50 127 10z"/>
<path d="M3823 380 c-49 -20 -59 -96 -17 -129 15 -12 37 -21 49 -21 35 0 75
37 75 70 0 42 -9 59 -41 75 -32 17 -35 17 -66 5z"/>
</g>
</svg>
